<svg width="112" height="104" viewBox="0 0 112 104" fill="none"
    xmlns="http://www.w3.org/2000/svg">
    <path d="M111.657 22.0143C111.657 22.0143 74.438 -5.37331 45.6459 0.946906L43.5392 1.64915C39.3257 3.05365 35.8145 5.16039 33.7077 7.96937L32.3032 10.0761L21.7695 28.3345L40.0279 31.8458C47.7527 36.7615 57.5841 38.8682 66.7133 36.7615L99.0167 43.0817L111.657 22.0143Z" fill="#76B3E1"/>
    <path opacity="0.3" d="M111.657 22.0143C111.657 22.0143 74.438 -5.37331 45.6459 0.946906L43.5392 1.64915C39.3257 3.05365 35.8145 5.16039 33.7077 7.96937L32.3032 10.0761L21.7695 28.3345L40.0279 31.8458C47.7527 36.7615 57.5841 38.8682 66.7133 36.7615L99.0167 43.0817L111.657 22.0143Z" fill="url(#paint0_linear_254_92)"/>
    <path d="M33.7056 22.0143L30.8967 22.7165C18.9585 26.2278 15.4472 37.4637 21.7674 47.2952C28.7899 56.4244 43.5371 61.3401 55.4753 57.8289L99.0146 43.0817C99.0146 43.0817 61.7955 15.6941 33.7056 22.0143Z" fill="#518AC8"/>
    <path opacity="0.3" d="M33.7056 22.0143L30.8967 22.7165C18.9585 26.2278 15.4472 37.4637 21.7674 47.2952C28.7899 56.4244 43.5371 61.3401 55.4753 57.8289L99.0146 43.0817C99.0146 43.0817 61.7955 15.6941 33.7056 22.0143Z" fill="url(#paint1_linear_254_92)"/>
    <path d="M91.2921 53.6156C87.3604 48.7038 82.0521 45.0773 76.0469 43.2007C70.0417 41.3241 63.6131 41.2827 57.5842 43.0819L14.0449 57.1268L0 81.7054L78.6516 95.0481L92.6966 69.7673C95.5056 64.8515 94.8033 59.2336 91.2921 53.6156Z" fill="url(#paint2_linear_254_92)"/>
    <path d="M77.2471 78.1947C73.3155 73.2829 68.0072 69.6564 62.002 67.7798C55.9968 65.9032 49.5681 65.8618 43.5393 67.661L0 81.7059C0 81.7059 37.2191 109.796 66.0112 102.773L68.1179 102.071C80.0561 98.5598 84.2696 87.3239 77.2471 78.1947Z" fill="url(#paint3_linear_254_92)"/>
    <defs>
        <linearGradient id="paint0_linear_254_92" x1="16.5027" y1="-0.457588" x2="103.932" y2="42.0283" gradientUnits="userSpaceOnUse">
            <stop offset="0.1" stop-color="#76B3E1"/>
            <stop offset="0.3" stop-color="#DCF2FD"/>
            <stop offset="1" stop-color="#76B3E1"/>
        </linearGradient>
        <linearGradient id="paint1_linear_254_92" x1="64.464" y1="20.3289" x2="49.1551" y2="71.312" gradientUnits="userSpaceOnUse">
            <stop stop-color="#76B3E1"/>
            <stop offset="0.5" stop-color="#4377BB"/>
            <stop offset="1" stop-color="#1F3B77"/>
        </linearGradient>
        <linearGradient id="paint2_linear_254_92" x1="10.1124" y1="42.5201" x2="98.5252" y2="102.632" gradientUnits="userSpaceOnUse">
            <stop stop-color="#315AA9"/>
            <stop offset="0.5" stop-color="#518AC8"/>
            <stop offset="1" stop-color="#315AA9"/>
        </linearGradient>
        <linearGradient id="paint3_linear_254_92" x1="50" y1="49.7537" x2="14.3259" y2="180.582" gradientUnits="userSpaceOnUse">
            <stop stop-color="#4377BB"/>
            <stop offset="0.5" stop-color="#1A336B"/>
            <stop offset="1" stop-color="#1A336B"/>
        </linearGradient>
    </defs>
</svg>
